<svg width="9" height="11" viewBox="0 0 9 11" fill="none" xmlns="http://www.w3.org/2000/svg">
<path d="M6.6825 5.22528C6.61224 5.15053 6.51719 5.10857 6.41813 5.10857C6.31906 5.10857 6.22401 5.15053 6.15375 5.22528C6.08391 5.30047 6.0447 5.40219 6.0447 5.50821C6.0447 5.61424 6.08391 5.71595 6.15375 5.79115L7.575 7.31217H0.75V0.401327C0.75 0.294888 0.710491 0.192809 0.640165 0.117546C0.569839 0.0422825 0.474456 0 0.375 0C0.275544 0 0.180161 0.0422825 0.109835 0.117546C0.0395089 0.192809 0 0.294888 0 0.401327V7.31217C0 7.52505 0.0790176 7.72921 0.21967 7.87974C0.360322 8.03026 0.551088 8.11483 0.75 8.11483H7.55625L6.15375 9.6198C6.08391 9.695 6.0447 9.79671 6.0447 9.90274C6.0447 10.0088 6.08391 10.1105 6.15375 10.1857C6.2236 10.2598 6.31787 10.3016 6.41625 10.3021C6.4656 10.3024 6.51453 10.2922 6.56021 10.2723C6.6059 10.2523 6.64746 10.2229 6.6825 10.1857L9 7.7135L6.6825 5.22528Z" fill="#303030"/>
</svg>
