<svg width="23" height="22" viewBox="0 0 23 22" fill="none" xmlns="http://www.w3.org/2000/svg">
<path d="M5.75 5.15625C5.75 4.88275 5.86359 4.62044 6.06578 4.42705C6.26796 4.23365 6.54219 4.125 6.82812 4.125H15.4531C15.7391 4.125 16.0133 4.23365 16.2155 4.42705C16.4177 4.62044 16.5312 4.88275 16.5312 5.15625V7.21875C16.5312 7.49225 16.4177 7.75456 16.2155 7.94795C16.0133 8.14135 15.7391 8.25 15.4531 8.25H6.82812C6.54219 8.25 6.26796 8.14135 6.06578 7.94795C5.86359 7.75456 5.75 7.49225 5.75 7.21875V5.15625ZM7.1875 5.5V6.875H15.0938V5.5H7.1875ZM2.875 3.60938C2.875 3.01678 3.12111 2.44846 3.55918 2.02943C3.99725 1.61041 4.59141 1.375 5.21094 1.375H17.0703C17.6898 1.375 18.284 1.61041 18.7221 2.02943C19.1601 2.44846 19.4062 3.01678 19.4062 3.60938V18.3906C19.4062 18.9832 19.1601 19.5515 18.7221 19.9706C18.284 20.3896 17.6898 20.625 17.0703 20.625H5.21094C4.59141 20.625 3.99725 20.3896 3.55918 19.9706C3.12111 19.5515 2.875 18.9832 2.875 18.3906V3.60938ZM5.21094 2.75C4.715 2.75 4.3125 3.135 4.3125 3.60938V18.3906C4.3125 18.865 4.715 19.25 5.21094 19.25H17.0703C17.5662 19.25 17.9688 18.865 17.9688 18.3906V3.60938C17.9688 3.135 17.5662 2.75 17.0703 2.75H5.21094ZM21.0234 5.5H20.125V8.25H21.0234C21.1664 8.25 21.3035 8.19567 21.4046 8.09898C21.5057 8.00228 21.5625 7.87113 21.5625 7.73438V6.01562C21.5625 5.87887 21.5057 5.74772 21.4046 5.65102C21.3035 5.55433 21.1664 5.5 21.0234 5.5ZM20.125 9.625H21.0234C21.1664 9.625 21.3035 9.67933 21.4046 9.77602C21.5057 9.87272 21.5625 10.0039 21.5625 10.1406V11.8594C21.5625 11.9961 21.5057 12.1273 21.4046 12.224C21.3035 12.3207 21.1664 12.375 21.0234 12.375H20.125V9.625ZM21.0234 13.75H20.125V16.5H21.0234C21.1664 16.5 21.3035 16.4457 21.4046 16.349C21.5057 16.2523 21.5625 16.1211 21.5625 15.9844V14.2656C21.5625 14.1289 21.5057 13.9977 21.4046 13.901C21.3035 13.8043 21.1664 13.75 21.0234 13.75Z" fill="#3A3A3A"/>
</svg>
