<svg width="130" height="32" viewBox="0 0 130 32" fill="none" xmlns="http://www.w3.org/2000/svg">
<g style="mix-blend-mode:multiply">
<path d="M0.980721 0.5H129.5V31.5H0.94607L11.6631 15.7817L11.8613 15.491L11.6546 15.2063L0.980721 0.5Z" fill="#93A7CD" fill-opacity="0.5"/>
<path d="M0.980721 0.5H129.5V31.5H0.94607L11.6631 15.7817L11.8613 15.491L11.6546 15.2063L0.980721 0.5Z" stroke="black"/>
</g>
<path d="M52.6875 20L50.3125 11.2727H52.7614L54.1136 17.1364H54.1932L55.6023 11.2727H58.0057L59.4375 17.1023H59.5114L60.8409 11.2727H63.2841L60.9148 20H58.3523L56.8523 14.5114H56.7443L55.2443 20H52.6875ZM64.5753 20V11.2727H66.9219V12.7955H67.0128C67.1719 12.2538 67.4389 11.8447 67.8139 11.5682C68.1889 11.2879 68.6207 11.1477 69.1094 11.1477C69.2306 11.1477 69.3613 11.1553 69.5014 11.1705C69.6416 11.1856 69.7647 11.2064 69.8707 11.233V13.3807C69.7571 13.3466 69.5999 13.3163 69.3991 13.2898C69.1984 13.2633 69.0147 13.25 68.848 13.25C68.492 13.25 68.1738 13.3277 67.8935 13.483C67.617 13.6345 67.3973 13.8466 67.2344 14.1193C67.0753 14.392 66.9957 14.7064 66.9957 15.0625V20H64.5753ZM71.1222 20V11.2727H73.5426V20H71.1222ZM72.3381 10.1477C71.9782 10.1477 71.6695 10.0284 71.4119 9.78977C71.1581 9.54735 71.0312 9.25758 71.0312 8.92045C71.0312 8.58712 71.1581 8.30114 71.4119 8.0625C71.6695 7.82008 71.9782 7.69886 72.3381 7.69886C72.6979 7.69886 73.0047 7.82008 73.2585 8.0625C73.5161 8.30114 73.6449 8.58712 73.6449 8.92045C73.6449 9.25758 73.5161 9.54735 73.2585 9.78977C73.0047 10.0284 72.6979 10.1477 72.3381 10.1477ZM80.1236 11.2727V13.0909H74.8679V11.2727H80.1236ZM76.0611 9.18182H78.4815V17.3182C78.4815 17.5417 78.5156 17.7159 78.5838 17.8409C78.652 17.9621 78.7467 18.0473 78.8679 18.0966C78.9929 18.1458 79.1368 18.1705 79.2997 18.1705C79.4134 18.1705 79.527 18.161 79.6406 18.142C79.7543 18.1193 79.8414 18.1023 79.902 18.0909L80.2827 19.892C80.1615 19.9299 79.991 19.9735 79.7713 20.0227C79.5516 20.0758 79.2846 20.108 78.9702 20.1193C78.3868 20.142 77.8755 20.0644 77.4361 19.8864C77.0005 19.7083 76.6615 19.4318 76.419 19.0568C76.1766 18.6818 76.0573 18.2083 76.0611 17.6364V9.18182ZM85.5838 20.1705C84.6861 20.1705 83.9134 19.9886 83.2656 19.625C82.6217 19.2576 82.1255 18.7386 81.777 18.0682C81.4285 17.3939 81.2543 16.5966 81.2543 15.6761C81.2543 14.7784 81.4285 13.9905 81.777 13.3125C82.1255 12.6345 82.616 12.1061 83.2486 11.7273C83.8849 11.3485 84.6312 11.1591 85.4872 11.1591C86.063 11.1591 86.599 11.2519 87.0952 11.4375C87.5952 11.6193 88.0308 11.8939 88.402 12.2614C88.777 12.6288 89.0687 13.0909 89.277 13.6477C89.4853 14.2008 89.5895 14.8485 89.5895 15.5909V16.2557H82.2202V14.7557H87.3111C87.3111 14.4072 87.2353 14.0985 87.0838 13.8295C86.9323 13.5606 86.7221 13.3504 86.4531 13.1989C86.188 13.0436 85.8793 12.9659 85.527 12.9659C85.1596 12.9659 84.8338 13.0511 84.5497 13.2216C84.2694 13.3883 84.0497 13.6136 83.8906 13.8977C83.7315 14.178 83.6501 14.4905 83.6463 14.8352V16.2614C83.6463 16.6932 83.7259 17.0663 83.8849 17.3807C84.0478 17.6951 84.277 17.9375 84.5724 18.108C84.8679 18.2784 85.2183 18.3636 85.6236 18.3636C85.8925 18.3636 86.1387 18.3258 86.3622 18.25C86.5857 18.1742 86.777 18.0606 86.9361 17.9091C87.0952 17.7576 87.2164 17.572 87.2997 17.3523L89.5384 17.5C89.4247 18.0379 89.1918 18.5076 88.8395 18.9091C88.491 19.3068 88.0402 19.6174 87.4872 19.8409C86.938 20.0606 86.3035 20.1705 85.5838 20.1705Z" fill="black"/>
</svg>
