<svg width="20" height="18" viewBox="0 0 20 18" fill="none" xmlns="http://www.w3.org/2000/svg">
<path d="M3 13.7411H7.24C7.37161 13.7417 7.50207 13.7201 7.62391 13.6773C7.74574 13.6346 7.85656 13.5717 7.95 13.4921L14.87 7.54266L17.71 5.15601C17.8037 5.0762 17.8781 4.98125 17.9289 4.87663C17.9797 4.77202 18.0058 4.65981 18.0058 4.54647C18.0058 4.43314 17.9797 4.32093 17.9289 4.21631C17.8781 4.11169 17.8037 4.01674 17.71 3.93693L13.47 0.253944C13.377 0.173478 13.2664 0.10961 13.1446 0.066025C13.0227 0.0224398 12.892 0 12.76 0C12.628 0 12.4973 0.0224398 12.3754 0.066025C12.2536 0.10961 12.143 0.173478 12.05 0.253944L9.23 2.68352L2.29 8.63296C2.19732 8.71318 2.12399 8.80831 2.07423 8.91291C2.02446 9.01751 1.99924 9.12951 2 9.2425V12.8826C2 13.1103 2.10536 13.3286 2.29289 13.4896C2.48043 13.6506 2.73478 13.7411 3 13.7411ZM12.76 2.07398L15.59 4.50355L14.17 5.72262L11.34 3.29305L12.76 2.07398ZM4 9.59449L9.93 4.50355L12.76 6.93312L6.83 12.0241H4V9.59449ZM19 15.4581H1C0.734784 15.4581 0.48043 15.5485 0.292893 15.7095C0.105357 15.8705 0 16.0889 0 16.3166C0 16.5443 0.105357 16.7626 0.292893 16.9236C0.48043 17.0846 0.734784 17.1751 1 17.1751H19C19.2652 17.1751 19.5196 17.0846 19.7071 16.9236C19.8946 16.7626 20 16.5443 20 16.3166C20 16.0889 19.8946 15.8705 19.7071 15.7095C19.5196 15.5485 19.2652 15.4581 19 15.4581Z" fill="#3A3A3A"/>
</svg>
