<svg width="50" height="50" viewBox="0 0 50 50" fill="none" xmlns="http://www.w3.org/2000/svg">
<path fill-rule="evenodd" clip-rule="evenodd" d="M25 4.1665C13.4937 4.1665 4.16666 13.4936 4.16666 24.9998C4.16666 36.5061 13.4937 45.8332 25 45.8332C36.5062 45.8332 45.8333 36.5061 45.8333 24.9998C45.8333 13.4936 36.5062 4.1665 25 4.1665ZM17.7083 19.7915C17.7083 18.8339 17.8969 17.8858 18.2634 17.0011C18.6298 16.1164 19.1669 15.3126 19.844 14.6355C20.5211 13.9584 21.3249 13.4213 22.2096 13.0549C23.0943 12.6884 24.0424 12.4998 25 12.4998C25.9575 12.4998 26.9057 12.6884 27.7904 13.0549C28.675 13.4213 29.4789 13.9584 30.156 14.6355C30.8331 15.3126 31.3702 16.1164 31.7366 17.0011C32.103 17.8858 32.2916 18.8339 32.2916 19.7915C32.2916 21.7254 31.5234 23.58 30.156 24.9475C28.7885 26.3149 26.9339 27.0832 25 27.0832C23.0661 27.0832 21.2115 26.3149 19.844 24.9475C18.4765 23.58 17.7083 21.7254 17.7083 19.7915ZM38.0375 35.3832C36.478 37.3449 34.4954 38.9289 32.2378 40.0169C29.9803 41.1049 27.5061 41.6688 25 41.6665C22.4939 41.6688 20.0197 41.1049 17.7621 40.0169C15.5046 38.9289 13.522 37.3449 11.9625 35.3832C15.3396 32.9602 19.9479 31.2498 25 31.2498C30.0521 31.2498 34.6604 32.9602 38.0375 35.3832Z" fill="#BCBCBC"/>
</svg>
