<svg width="50" height="50" viewBox="0 0 50 50" fill="none" xmlns="http://www.w3.org/2000/svg">
<rect width="50" height="50" fill="#EDEDED"/>
<path d="M31 35C30.1667 35 29.4583 34.7083 28.875 34.125C28.2917 33.5417 28 32.8333 28 32C28 31.8833 28.0083 31.7623 28.025 31.637C28.0417 31.5117 28.0667 31.3993 28.1 31.3L21.05 27.2C20.7667 27.45 20.45 27.646 20.1 27.788C19.75 27.93 19.3833 28.0007 19 28C18.1667 28 17.4583 27.7083 16.875 27.125C16.2917 26.5417 16 25.8333 16 25C16 24.1667 16.2917 23.4583 16.875 22.875C17.4583 22.2917 18.1667 22 19 22C19.3833 22 19.75 22.071 20.1 22.213C20.45 22.355 20.7667 22.5507 21.05 22.8L28.1 18.7C28.0667 18.6 28.0417 18.4877 28.025 18.363C28.0083 18.2383 28 18.1173 28 18C28 17.1667 28.2917 16.4583 28.875 15.875C29.4583 15.2917 30.1667 15 31 15C31.8333 15 32.5417 15.2917 33.125 15.875C33.7083 16.4583 34 17.1667 34 18C34 18.8333 33.7083 19.5417 33.125 20.125C32.5417 20.7083 31.8333 21 31 21C30.6167 21 30.25 20.9293 29.9 20.788C29.55 20.6467 29.2333 20.4507 28.95 20.2L21.9 24.3C21.9333 24.4 21.9583 24.5127 21.975 24.638C21.9917 24.7633 22 24.884 22 25C22 25.1167 21.9917 25.2377 21.975 25.363C21.9583 25.4883 21.9333 25.6007 21.9 25.7L28.95 29.8C29.2333 29.55 29.55 29.3543 29.9 29.213C30.25 29.0717 30.6167 29.0007 31 29C31.8333 29 32.5417 29.2917 33.125 29.875C33.7083 30.4583 34 31.1667 34 32C34 32.8333 33.7083 33.5417 33.125 34.125C32.5417 34.7083 31.8333 35 31 35ZM31 19C31.2833 19 31.521 18.904 31.713 18.712C31.905 18.52 32.0007 18.2827 32 18C32 17.7167 31.904 17.479 31.712 17.287C31.52 17.095 31.2827 16.9993 31 17C30.7167 17 30.479 17.096 30.287 17.288C30.095 17.48 29.9993 17.7173 30 18C30 18.2833 30.096 18.521 30.288 18.713C30.48 18.905 30.7173 19.0007 31 19ZM19 26C19.2833 26 19.521 25.904 19.713 25.712C19.905 25.52 20.0007 25.2827 20 25C20 24.7167 19.904 24.479 19.712 24.287C19.52 24.095 19.2827 23.9993 19 24C18.7167 24 18.479 24.096 18.287 24.288C18.095 24.48 17.9993 24.7173 18 25C18 25.2833 18.096 25.521 18.288 25.713C18.48 25.905 18.7173 26.0007 19 26ZM31 33C31.2833 33 31.521 32.904 31.713 32.712C31.905 32.52 32.0007 32.2827 32 32C32 31.7167 31.904 31.479 31.712 31.287C31.52 31.095 31.2827 30.9993 31 31C30.7167 31 30.479 31.096 30.287 31.288C30.095 31.48 29.9993 31.7173 30 32C30 32.2833 30.096 32.521 30.288 32.713C30.48 32.905 30.7173 33.0007 31 33Z" fill="#707070"/>
</svg>
